<svg width="194" height="58" viewBox="0 0 194 58" fill="none" xmlns="http://www.w3.org/2000/svg">
<path d="M56.2129 21.0938V41H52.8086V21.0938H56.2129ZM62.4609 21.0938V23.8281H46.6152V21.0938H62.4609ZM69.4719 29.0508V46.6875H66.177V26.207H69.2121L69.4719 29.0508ZM79.1105 33.4668V33.7539C79.1105 34.8294 78.9829 35.8275 78.7277 36.748C78.4816 37.6595 78.1125 38.457 77.6203 39.1406C77.1372 39.8151 76.5402 40.3392 75.8293 40.7129C75.1184 41.0866 74.298 41.2734 73.3684 41.2734C72.4478 41.2734 71.6411 41.1048 70.9484 40.7676C70.2648 40.4212 69.6861 39.9336 69.2121 39.3047C68.7382 38.6758 68.3553 37.9375 68.0637 37.0898C67.7811 36.2331 67.5806 35.2943 67.4621 34.2734V33.166C67.5806 32.0814 67.7811 31.097 68.0637 30.2129C68.3553 29.3288 68.7382 28.5677 69.2121 27.9297C69.6861 27.2917 70.2648 26.7995 70.9484 26.4531C71.632 26.1068 72.4296 25.9336 73.341 25.9336C74.2707 25.9336 75.0956 26.1159 75.8156 26.4805C76.5357 26.8359 77.1418 27.3464 77.634 28.0117C78.1262 28.668 78.4953 29.4609 78.7414 30.3906C78.9875 31.3112 79.1105 32.3366 79.1105 33.4668ZM75.8156 33.7539V33.4668C75.8156 32.7832 75.7518 32.1497 75.6242 31.5664C75.4966 30.974 75.2961 30.4544 75.0227 30.0078C74.7492 29.5612 74.3983 29.2148 73.9699 28.9688C73.5507 28.7135 73.0448 28.5859 72.4523 28.5859C71.869 28.5859 71.3677 28.6862 70.9484 28.8867C70.5292 29.0781 70.1783 29.347 69.8957 29.6934C69.6132 30.0397 69.3944 30.4453 69.2395 30.9102C69.0845 31.3659 68.9751 31.8626 68.9113 32.4004V35.0527C69.0207 35.709 69.2076 36.3105 69.4719 36.8574C69.7362 37.4043 70.1099 37.8418 70.593 38.1699C71.0852 38.4889 71.7141 38.6484 72.4797 38.6484C73.0721 38.6484 73.578 38.5208 73.9973 38.2656C74.4165 38.0104 74.7583 37.6595 75.0227 37.2129C75.2961 36.7572 75.4966 36.2331 75.6242 35.6406C75.7518 35.0482 75.8156 34.4193 75.8156 33.7539ZM93.0531 38.0332V30.9785C93.0531 30.4499 92.9574 29.9941 92.766 29.6113C92.5746 29.2285 92.2829 28.9323 91.891 28.7227C91.5082 28.513 91.0251 28.4082 90.4418 28.4082C89.904 28.4082 89.4392 28.4993 89.0473 28.6816C88.6553 28.8639 88.35 29.11 88.1312 29.4199C87.9125 29.7298 87.8031 30.0807 87.8031 30.4727H84.5219C84.5219 29.8893 84.6631 29.3242 84.9457 28.7773C85.2283 28.2305 85.6384 27.7428 86.1762 27.3145C86.7139 26.8861 87.3565 26.5488 88.1039 26.3027C88.8513 26.0566 89.6898 25.9336 90.6195 25.9336C91.7315 25.9336 92.7159 26.1204 93.5727 26.4941C94.4385 26.8678 95.1176 27.4329 95.6098 28.1895C96.1111 28.9368 96.3617 29.8757 96.3617 31.0059V37.582C96.3617 38.2565 96.4073 38.8626 96.4984 39.4004C96.5987 39.929 96.74 40.3893 96.9223 40.7812V41H93.5453C93.3904 40.6445 93.2673 40.1934 93.1762 39.6465C93.0941 39.0905 93.0531 38.5527 93.0531 38.0332ZM93.5316 32.0039L93.559 34.041H91.1937C90.5831 34.041 90.0453 34.1003 89.5805 34.2188C89.1156 34.3281 88.7283 34.4922 88.4184 34.7109C88.1085 34.9297 87.876 35.194 87.7211 35.5039C87.5661 35.8138 87.4887 36.1647 87.4887 36.5566C87.4887 36.9486 87.5798 37.3086 87.7621 37.6367C87.9444 37.9557 88.2087 38.2064 88.5551 38.3887C88.9105 38.571 89.3389 38.6621 89.8402 38.6621C90.5147 38.6621 91.1026 38.5254 91.6039 38.252C92.1143 37.9694 92.5154 37.6276 92.807 37.2266C93.0987 36.8164 93.2536 36.429 93.2719 36.0645L94.3383 37.5273C94.2289 37.901 94.0421 38.3021 93.7777 38.7305C93.5134 39.1589 93.1671 39.569 92.7387 39.9609C92.3194 40.3438 91.8135 40.6582 91.2211 40.9043C90.6378 41.1504 89.9633 41.2734 89.1977 41.2734C88.2315 41.2734 87.3702 41.082 86.6137 40.6992C85.8572 40.3073 85.2647 39.7832 84.8363 39.127C84.4079 38.4616 84.1937 37.7096 84.1937 36.8711C84.1937 36.0872 84.3396 35.3945 84.6312 34.793C84.932 34.1823 85.3695 33.6719 85.9437 33.2617C86.5271 32.8516 87.238 32.5417 88.0766 32.332C88.9151 32.1133 89.8721 32.0039 90.9477 32.0039H93.5316ZM112.711 32.3867V34.9844H105.054V32.3867H112.711ZM106.011 26.207V41H102.716V26.207H106.011ZM115.089 26.207V41H111.795V26.207H115.089ZM127.446 38.6484C127.984 38.6484 128.467 38.5436 128.895 38.334C129.333 38.1152 129.684 37.8145 129.948 37.4316C130.221 37.0488 130.372 36.6068 130.399 36.1055H133.503C133.485 37.0625 133.202 37.9329 132.655 38.7168C132.108 39.5007 131.384 40.125 130.481 40.5898C129.579 41.0456 128.581 41.2734 127.487 41.2734C126.357 41.2734 125.373 41.082 124.534 40.6992C123.695 40.3073 122.998 39.7695 122.442 39.0859C121.886 38.4023 121.467 37.6139 121.184 36.7207C120.911 35.8275 120.774 34.8704 120.774 33.8496V33.3711C120.774 32.3503 120.911 31.3932 121.184 30.5C121.467 29.5977 121.886 28.8047 122.442 28.1211C122.998 27.4375 123.695 26.9043 124.534 26.5215C125.373 26.1296 126.352 25.9336 127.473 25.9336C128.658 25.9336 129.697 26.1706 130.591 26.6445C131.484 27.1094 132.186 27.7611 132.696 28.5996C133.216 29.429 133.485 30.3952 133.503 31.498H130.399C130.372 30.9512 130.235 30.459 129.989 30.0215C129.752 29.5749 129.415 29.2194 128.977 28.9551C128.549 28.6908 128.034 28.5586 127.432 28.5586C126.767 28.5586 126.216 28.6953 125.778 28.9688C125.341 29.2331 124.999 29.5977 124.753 30.0625C124.507 30.5182 124.329 31.0332 124.22 31.6074C124.119 32.1725 124.069 32.7604 124.069 33.3711V33.8496C124.069 34.4603 124.119 35.0527 124.22 35.627C124.32 36.2012 124.493 36.7161 124.739 37.1719C124.994 37.6185 125.341 37.9785 125.778 38.252C126.216 38.5163 126.772 38.6484 127.446 38.6484ZM156.4 33.7812V34.0684C156.4 35.1165 156.282 36.0827 156.045 36.9668C155.817 37.8418 155.475 38.6029 155.02 39.25C154.564 39.8971 153.999 40.3984 153.324 40.7539C152.659 41.1094 151.884 41.2871 151 41.2871C150.225 41.2871 149.551 41.1549 148.977 40.8906C148.402 40.6263 147.919 40.2572 147.527 39.7832C147.135 39.3001 146.821 38.735 146.584 38.0879C146.347 37.4316 146.174 36.7116 146.064 35.9277V31.6484C146.174 30.8099 146.342 30.0443 146.57 29.3516C146.807 28.6497 147.122 28.0436 147.514 27.5332C147.915 27.0228 148.398 26.6309 148.963 26.3574C149.528 26.0749 150.198 25.9336 150.973 25.9336C151.684 25.9336 152.326 26.0612 152.9 26.3164C153.475 26.5625 153.98 26.918 154.418 27.3828C154.855 27.8385 155.22 28.39 155.512 29.0371C155.803 29.6751 156.022 30.3952 156.168 31.1973C156.323 31.9993 156.4 32.8607 156.4 33.7812ZM153.105 34.0684V33.7812C153.105 33.207 153.069 32.6602 152.996 32.1406C152.923 31.6211 152.809 31.1471 152.654 30.7188C152.508 30.2812 152.317 29.903 152.08 29.584C151.843 29.2559 151.556 29.0052 151.219 28.832C150.891 28.6497 150.508 28.5586 150.07 28.5586C149.478 28.5586 148.986 28.6589 148.594 28.8594C148.211 29.0508 147.919 29.3242 147.719 29.6797C147.527 30.026 147.404 30.4271 147.35 30.8828V36.707C147.413 37.0898 147.546 37.4271 147.746 37.7188C147.956 38.0104 148.252 38.2428 148.635 38.416C149.018 38.5801 149.505 38.6621 150.098 38.6621C150.645 38.6621 151.105 38.5482 151.479 38.3203C151.861 38.0833 152.171 37.7552 152.408 37.3359C152.654 36.9167 152.832 36.429 152.941 35.873C153.051 35.3171 153.105 34.7155 153.105 34.0684ZM138.271 34.0684V33.7812C138.271 32.8607 138.344 31.9993 138.49 31.1973C138.636 30.3952 138.855 29.6751 139.146 29.0371C139.447 28.39 139.816 27.8385 140.254 27.3828C140.691 26.918 141.197 26.5625 141.771 26.3164C142.346 26.0612 142.988 25.9336 143.699 25.9336C144.465 25.9336 145.126 26.0749 145.682 26.3574C146.238 26.6309 146.707 27.0228 147.09 27.5332C147.482 28.0436 147.792 28.6497 148.02 29.3516C148.257 30.0443 148.43 30.8099 148.539 31.6484V35.7637C148.439 36.5658 148.27 37.304 148.033 37.9785C147.796 38.653 147.486 39.2363 147.104 39.7285C146.721 40.2207 146.247 40.6035 145.682 40.877C145.117 41.1504 144.447 41.2871 143.672 41.2871C142.797 41.2871 142.022 41.1094 141.348 40.7539C140.673 40.3984 140.108 39.8971 139.652 39.25C139.197 38.6029 138.85 37.8418 138.613 36.9668C138.385 36.0827 138.271 35.1165 138.271 34.0684ZM141.566 33.7812V34.0684C141.566 34.7155 141.617 35.3171 141.717 35.873C141.826 36.429 141.995 36.9167 142.223 37.3359C142.451 37.7461 142.751 38.0697 143.125 38.3066C143.499 38.5436 143.959 38.6621 144.506 38.6621C145.107 38.6621 145.6 38.571 145.982 38.3887C146.365 38.2064 146.657 37.9557 146.857 37.6367C147.067 37.3177 147.204 36.9531 147.268 36.543V30.8828C147.213 30.4271 147.085 30.026 146.885 29.6797C146.684 29.3242 146.393 29.0508 146.01 28.8594C145.627 28.6589 145.135 28.5586 144.533 28.5586C143.986 28.5586 143.521 28.6953 143.139 28.9688C142.765 29.2422 142.46 29.6204 142.223 30.1035C141.995 30.5775 141.826 31.1335 141.717 31.7715C141.617 32.4004 141.566 33.0703 141.566 33.7812ZM145.613 46.6875V20H148.922V46.6875H145.613ZM168.552 41.2734C167.458 41.2734 166.469 41.0957 165.585 40.7402C164.71 40.3757 163.963 39.8698 163.343 39.2227C162.732 38.5755 162.263 37.8145 161.935 36.9395C161.607 36.0645 161.443 35.1211 161.443 34.1094V33.5625C161.443 32.4049 161.611 31.3568 161.948 30.418C162.286 29.4792 162.755 28.6771 163.357 28.0117C163.958 27.3372 164.669 26.8223 165.489 26.4668C166.31 26.1113 167.198 25.9336 168.155 25.9336C169.213 25.9336 170.138 26.1113 170.931 26.4668C171.724 26.8223 172.38 27.3236 172.9 27.9707C173.428 28.6087 173.82 29.3698 174.075 30.2539C174.34 31.138 174.472 32.1133 174.472 33.1797V34.5879H163.042V32.2227H171.218V31.9629C171.2 31.3704 171.081 30.8145 170.863 30.2949C170.653 29.7754 170.329 29.3561 169.892 29.0371C169.454 28.7181 168.871 28.5586 168.142 28.5586C167.595 28.5586 167.107 28.6771 166.679 28.9141C166.26 29.1419 165.909 29.4746 165.626 29.9121C165.344 30.3496 165.125 30.8783 164.97 31.498C164.824 32.1087 164.751 32.7969 164.751 33.5625V34.1094C164.751 34.7565 164.838 35.3581 165.011 35.9141C165.193 36.4609 165.458 36.9395 165.804 37.3496C166.15 37.7598 166.57 38.0833 167.062 38.3203C167.554 38.5482 168.114 38.6621 168.743 38.6621C169.536 38.6621 170.243 38.5026 170.863 38.1836C171.482 37.8646 172.02 37.4134 172.476 36.8301L174.212 38.5117C173.893 38.9766 173.478 39.4232 172.968 39.8516C172.458 40.2708 171.833 40.6126 171.095 40.877C170.366 41.1413 169.518 41.2734 168.552 41.2734ZM183.151 29.0508V46.6875H179.856V26.207H182.891L183.151 29.0508ZM192.789 33.4668V33.7539C192.789 34.8294 192.662 35.8275 192.407 36.748C192.161 37.6595 191.791 38.457 191.299 39.1406C190.816 39.8151 190.219 40.3392 189.508 40.7129C188.797 41.0866 187.977 41.2734 187.047 41.2734C186.127 41.2734 185.32 41.1048 184.627 40.7676C183.944 40.4212 183.365 39.9336 182.891 39.3047C182.417 38.6758 182.034 37.9375 181.743 37.0898C181.46 36.2331 181.26 35.2943 181.141 34.2734V33.166C181.26 32.0814 181.46 31.097 181.743 30.2129C182.034 29.3288 182.417 28.5677 182.891 27.9297C183.365 27.2917 183.944 26.7995 184.627 26.4531C185.311 26.1068 186.108 25.9336 187.02 25.9336C187.95 25.9336 188.774 26.1159 189.495 26.4805C190.215 26.8359 190.821 27.3464 191.313 28.0117C191.805 28.668 192.174 29.4609 192.42 30.3906C192.666 31.3112 192.789 32.3366 192.789 33.4668ZM189.495 33.7539V33.4668C189.495 32.7832 189.431 32.1497 189.303 31.5664C189.176 30.974 188.975 30.4544 188.702 30.0078C188.428 29.5612 188.077 29.2148 187.649 28.9688C187.23 28.7135 186.724 28.5859 186.131 28.5859C185.548 28.5859 185.047 28.6862 184.627 28.8867C184.208 29.0781 183.857 29.347 183.575 29.6934C183.292 30.0397 183.073 30.4453 182.918 30.9102C182.763 31.3659 182.654 31.8626 182.59 32.4004V35.0527C182.7 35.709 182.886 36.3105 183.151 36.8574C183.415 37.4043 183.789 37.8418 184.272 38.1699C184.764 38.4889 185.393 38.6484 186.159 38.6484C186.751 38.6484 187.257 38.5208 187.676 38.2656C188.095 38.0104 188.437 37.6595 188.702 37.2129C188.975 36.7572 189.176 36.2331 189.303 35.6406C189.431 35.0482 189.495 34.4193 189.495 33.7539Z" fill="black"/>
<path d="M15.9375 8.5625V37H9.08203V8.5625H15.9375ZM24.4922 8.5625V13.8555H0.722656V8.5625H24.4922Z" fill="black"/>
<path d="M28.9375 19.5625V48H22.082V19.5625H28.9375ZM37.4922 19.5625V24.8555H13.7227V19.5625H37.4922Z" fill="#8DC73F"/>
</svg>
