<svg width="143" height="48" viewBox="0 0 143 48" fill="none" xmlns="http://www.w3.org/2000/svg">
<path d="M44.2949 17.7812V32H41.8633V17.7812H44.2949ZM48.7578 17.7812V19.7344H37.4395V17.7812H48.7578ZM53.7656 23.4648V36.0625H51.4121V21.4336H53.5801L53.7656 23.4648ZM60.6504 26.6191V26.8242C60.6504 27.5924 60.5592 28.3053 60.377 28.9629C60.2012 29.6139 59.9375 30.1836 59.5859 30.6719C59.2409 31.1536 58.8145 31.528 58.3066 31.7949C57.7988 32.0618 57.2129 32.1953 56.5488 32.1953C55.8913 32.1953 55.3151 32.0749 54.8203 31.834C54.332 31.5866 53.9186 31.2383 53.5801 30.7891C53.2415 30.3398 52.9681 29.8125 52.7598 29.207C52.5579 28.5951 52.4147 27.9245 52.3301 27.1953V26.4043C52.4147 25.6296 52.5579 24.9264 52.7598 24.2949C52.9681 23.6634 53.2415 23.1198 53.5801 22.6641C53.9186 22.2083 54.332 21.8568 54.8203 21.6094C55.3086 21.362 55.8783 21.2383 56.5293 21.2383C57.1934 21.2383 57.7826 21.3685 58.2969 21.6289C58.8112 21.8828 59.2441 22.2474 59.5957 22.7227C59.9473 23.1914 60.2109 23.7578 60.3867 24.4219C60.5625 25.0794 60.6504 25.8118 60.6504 26.6191ZM58.2969 26.8242V26.6191C58.2969 26.1309 58.2513 25.6784 58.1602 25.2617C58.069 24.8385 57.9258 24.4674 57.7305 24.1484C57.5352 23.8294 57.2845 23.582 56.9785 23.4062C56.679 23.224 56.3177 23.1328 55.8945 23.1328C55.4779 23.1328 55.1198 23.2044 54.8203 23.3477C54.5208 23.4844 54.2702 23.6764 54.0684 23.9238C53.8665 24.1712 53.7103 24.4609 53.5996 24.793C53.4889 25.1185 53.4108 25.4733 53.3652 25.8574V27.752C53.4434 28.2207 53.5768 28.6504 53.7656 29.041C53.9544 29.4316 54.2214 29.7441 54.5664 29.9785C54.918 30.2064 55.3672 30.3203 55.9141 30.3203C56.3372 30.3203 56.6986 30.2292 56.998 30.0469C57.2975 29.8646 57.5417 29.6139 57.7305 29.2949C57.9258 28.9694 58.069 28.5951 58.1602 28.1719C58.2513 27.7487 58.2969 27.2995 58.2969 26.8242ZM70.6094 29.8809V24.8418C70.6094 24.4642 70.541 24.1387 70.4043 23.8652C70.2676 23.5918 70.0592 23.3802 69.7793 23.2305C69.5059 23.0807 69.1608 23.0059 68.7441 23.0059C68.36 23.0059 68.028 23.071 67.748 23.2012C67.4681 23.3314 67.25 23.5072 67.0938 23.7285C66.9375 23.9499 66.8594 24.2005 66.8594 24.4805H64.5156C64.5156 24.0638 64.6165 23.6602 64.8184 23.2695C65.0202 22.8789 65.3132 22.5306 65.6973 22.2246C66.0814 21.9186 66.5404 21.6777 67.0742 21.502C67.6081 21.3262 68.207 21.2383 68.8711 21.2383C69.6654 21.2383 70.3685 21.3717 70.9805 21.6387C71.599 21.9056 72.084 22.3092 72.4355 22.8496C72.7936 23.3835 72.9727 24.054 72.9727 24.8613V29.5586C72.9727 30.0404 73.0052 30.4733 73.0703 30.8574C73.1419 31.235 73.2428 31.5638 73.373 31.8438V32H70.9609C70.8503 31.7461 70.7624 31.4238 70.6973 31.0332C70.6387 30.6361 70.6094 30.252 70.6094 29.8809ZM70.9512 25.5742L70.9707 27.0293H69.2812C68.8451 27.0293 68.4609 27.0716 68.1289 27.1562C67.7969 27.2344 67.5202 27.3516 67.2988 27.5078C67.0775 27.6641 66.9115 27.8529 66.8008 28.0742C66.6901 28.2956 66.6348 28.5462 66.6348 28.8262C66.6348 29.1061 66.6999 29.3633 66.8301 29.5977C66.9603 29.8255 67.1491 30.0046 67.3965 30.1348C67.6504 30.265 67.9564 30.3301 68.3145 30.3301C68.7962 30.3301 69.2161 30.2324 69.5742 30.0371C69.9388 29.8353 70.2253 29.5911 70.4336 29.3047C70.6419 29.0117 70.7526 28.735 70.7656 28.4746L71.5273 29.5195C71.4492 29.7865 71.3158 30.0729 71.127 30.3789C70.9382 30.6849 70.6908 30.9779 70.3848 31.2578C70.0853 31.5312 69.724 31.7559 69.3008 31.9316C68.8841 32.1074 68.4023 32.1953 67.8555 32.1953C67.1654 32.1953 66.5501 32.0586 66.0098 31.7852C65.4694 31.5052 65.0462 31.1309 64.7402 30.6621C64.4342 30.1868 64.2812 29.6497 64.2812 29.0508C64.2812 28.4909 64.3854 27.9961 64.5938 27.5664C64.8086 27.1302 65.1211 26.7656 65.5312 26.4727C65.9479 26.1797 66.4557 25.9583 67.0547 25.8086C67.6536 25.6523 68.3372 25.5742 69.1055 25.5742H70.9512ZM84.6504 25.8477V27.7031H79.1816V25.8477H84.6504ZM79.8652 21.4336V32H77.5117V21.4336H79.8652ZM86.3496 21.4336V32H83.9961V21.4336H86.3496ZM95.1758 30.3203C95.5599 30.3203 95.9049 30.2454 96.2109 30.0957C96.5234 29.9395 96.7741 29.7246 96.9629 29.4512C97.1582 29.1777 97.2656 28.862 97.2852 28.5039H99.502C99.4889 29.1875 99.2871 29.8092 98.8965 30.3691C98.5059 30.929 97.9883 31.375 97.3438 31.707C96.6992 32.0326 95.9863 32.1953 95.2051 32.1953C94.3978 32.1953 93.6947 32.0586 93.0957 31.7852C92.4967 31.5052 91.9987 31.1211 91.6016 30.6328C91.2044 30.1445 90.9049 29.5814 90.7031 28.9434C90.5078 28.3053 90.4102 27.6217 90.4102 26.8926V26.5508C90.4102 25.8216 90.5078 25.138 90.7031 24.5C90.9049 23.8555 91.2044 23.2891 91.6016 22.8008C91.9987 22.3125 92.4967 21.9316 93.0957 21.6582C93.6947 21.3783 94.3945 21.2383 95.1953 21.2383C96.0417 21.2383 96.7839 21.4076 97.4219 21.7461C98.0599 22.0781 98.5612 22.5436 98.9258 23.1426C99.2969 23.735 99.4889 24.4251 99.502 25.2129H97.2852C97.2656 24.8223 97.168 24.4707 96.9922 24.1582C96.8229 23.8392 96.582 23.5853 96.2695 23.3965C95.9635 23.2077 95.5957 23.1133 95.166 23.1133C94.6908 23.1133 94.2969 23.2109 93.9844 23.4062C93.6719 23.5951 93.4277 23.8555 93.252 24.1875C93.0762 24.513 92.9492 24.8809 92.8711 25.291C92.7995 25.6947 92.7637 26.1146 92.7637 26.5508V26.8926C92.7637 27.3288 92.7995 27.752 92.8711 28.1621C92.9427 28.5723 93.0664 28.9401 93.2422 29.2656C93.4245 29.5846 93.6719 29.8418 93.9844 30.0371C94.2969 30.2259 94.694 30.3203 95.1758 30.3203ZM115.857 26.8438V27.0488C115.857 27.7975 115.773 28.4876 115.604 29.1191C115.441 29.7441 115.197 30.2878 114.871 30.75C114.546 31.2122 114.142 31.5703 113.66 31.8242C113.185 32.0781 112.632 32.2051 112 32.2051C111.447 32.2051 110.965 32.1107 110.555 31.9219C110.145 31.7331 109.799 31.4694 109.52 31.1309C109.24 30.7858 109.015 30.3822 108.846 29.9199C108.676 29.4512 108.553 28.9368 108.475 28.377V25.3203C108.553 24.7214 108.673 24.1745 108.836 23.6797C109.005 23.1784 109.23 22.7454 109.51 22.3809C109.796 22.0163 110.141 21.7363 110.545 21.541C110.949 21.3392 111.427 21.2383 111.98 21.2383C112.488 21.2383 112.947 21.3294 113.357 21.5117C113.768 21.6875 114.129 21.9414 114.441 22.2734C114.754 22.599 115.014 22.9928 115.223 23.4551C115.431 23.9108 115.587 24.4251 115.691 24.998C115.802 25.571 115.857 26.1862 115.857 26.8438ZM113.504 27.0488V26.8438C113.504 26.4336 113.478 26.043 113.426 25.6719C113.374 25.3008 113.292 24.9622 113.182 24.6562C113.077 24.3438 112.941 24.0736 112.771 23.8457C112.602 23.6113 112.397 23.4323 112.156 23.3086C111.922 23.1784 111.648 23.1133 111.336 23.1133C110.913 23.1133 110.561 23.1849 110.281 23.3281C110.008 23.4648 109.799 23.6602 109.656 23.9141C109.52 24.1615 109.432 24.4479 109.393 24.7734V28.9336C109.438 29.207 109.533 29.4479 109.676 29.6562C109.826 29.8646 110.037 30.0306 110.311 30.1543C110.584 30.2715 110.932 30.3301 111.355 30.3301C111.746 30.3301 112.075 30.2487 112.342 30.0859C112.615 29.9167 112.837 29.6823 113.006 29.3828C113.182 29.0833 113.309 28.735 113.387 28.3379C113.465 27.9408 113.504 27.5111 113.504 27.0488ZM102.908 27.0488V26.8438C102.908 26.1862 102.96 25.571 103.064 24.998C103.169 24.4251 103.325 23.9108 103.533 23.4551C103.748 22.9928 104.012 22.599 104.324 22.2734C104.637 21.9414 104.998 21.6875 105.408 21.5117C105.818 21.3294 106.277 21.2383 106.785 21.2383C107.332 21.2383 107.804 21.3392 108.201 21.541C108.598 21.7363 108.934 22.0163 109.207 22.3809C109.487 22.7454 109.708 23.1784 109.871 23.6797C110.04 24.1745 110.164 24.7214 110.242 25.3203V28.2598C110.171 28.8327 110.05 29.36 109.881 29.8418C109.712 30.3236 109.49 30.7402 109.217 31.0918C108.943 31.4434 108.605 31.7168 108.201 31.9121C107.798 32.1074 107.319 32.2051 106.766 32.2051C106.141 32.2051 105.587 32.0781 105.105 31.8242C104.624 31.5703 104.22 31.2122 103.895 30.75C103.569 30.2878 103.322 29.7441 103.152 29.1191C102.99 28.4876 102.908 27.7975 102.908 27.0488ZM105.262 26.8438V27.0488C105.262 27.5111 105.298 27.9408 105.369 28.3379C105.447 28.735 105.568 29.0833 105.73 29.3828C105.893 29.6758 106.108 29.9069 106.375 30.0762C106.642 30.2454 106.971 30.3301 107.361 30.3301C107.791 30.3301 108.143 30.265 108.416 30.1348C108.689 30.0046 108.898 29.8255 109.041 29.5977C109.191 29.3698 109.288 29.1094 109.334 28.8164V24.7734C109.295 24.4479 109.204 24.1615 109.061 23.9141C108.917 23.6602 108.709 23.4648 108.436 23.3281C108.162 23.1849 107.811 23.1133 107.381 23.1133C106.99 23.1133 106.658 23.2109 106.385 23.4062C106.118 23.6016 105.9 23.8717 105.73 24.2168C105.568 24.5553 105.447 24.9525 105.369 25.4082C105.298 25.8574 105.262 26.3359 105.262 26.8438ZM108.152 36.0625V17H110.516V36.0625H108.152ZM124.537 32.1953C123.756 32.1953 123.049 32.0684 122.418 31.8145C121.793 31.554 121.259 31.1927 120.816 30.7305C120.38 30.2682 120.045 29.7246 119.811 29.0996C119.576 28.4746 119.459 27.8008 119.459 27.0781V26.6875C119.459 25.8607 119.579 25.112 119.82 24.4414C120.061 23.7708 120.396 23.1979 120.826 22.7227C121.256 22.2409 121.764 21.873 122.35 21.6191C122.936 21.3652 123.57 21.2383 124.254 21.2383C125.009 21.2383 125.67 21.3652 126.236 21.6191C126.803 21.873 127.271 22.2311 127.643 22.6934C128.02 23.1491 128.3 23.6927 128.482 24.3242C128.671 24.9557 128.766 25.6523 128.766 26.4141V27.4199H120.602V25.7305H126.441V25.5449C126.428 25.1217 126.344 24.7246 126.188 24.3535C126.038 23.9824 125.807 23.6829 125.494 23.4551C125.182 23.2272 124.765 23.1133 124.244 23.1133C123.854 23.1133 123.505 23.1979 123.199 23.3672C122.9 23.5299 122.649 23.7676 122.447 24.0801C122.245 24.3926 122.089 24.7702 121.979 25.2129C121.874 25.6491 121.822 26.1406 121.822 26.6875V27.0781C121.822 27.5404 121.884 27.9701 122.008 28.3672C122.138 28.7578 122.327 29.0996 122.574 29.3926C122.822 29.6855 123.121 29.9167 123.473 30.0859C123.824 30.2487 124.225 30.3301 124.674 30.3301C125.24 30.3301 125.745 30.2161 126.188 29.9883C126.63 29.7604 127.014 29.4382 127.34 29.0215L128.58 30.2227C128.352 30.5547 128.056 30.8737 127.691 31.1797C127.327 31.4792 126.881 31.7233 126.354 31.9121C125.833 32.1009 125.227 32.1953 124.537 32.1953ZM134.965 23.4648V36.0625H132.611V21.4336H134.779L134.965 23.4648ZM141.85 26.6191V26.8242C141.85 27.5924 141.758 28.3053 141.576 28.9629C141.4 29.6139 141.137 30.1836 140.785 30.6719C140.44 31.1536 140.014 31.528 139.506 31.7949C138.998 32.0618 138.412 32.1953 137.748 32.1953C137.09 32.1953 136.514 32.0749 136.02 31.834C135.531 31.5866 135.118 31.2383 134.779 30.7891C134.441 30.3398 134.167 29.8125 133.959 29.207C133.757 28.5951 133.614 27.9245 133.529 27.1953V26.4043C133.614 25.6296 133.757 24.9264 133.959 24.2949C134.167 23.6634 134.441 23.1198 134.779 22.6641C135.118 22.2083 135.531 21.8568 136.02 21.6094C136.508 21.362 137.077 21.2383 137.729 21.2383C138.393 21.2383 138.982 21.3685 139.496 21.6289C140.01 21.8828 140.443 22.2474 140.795 22.7227C141.146 23.1914 141.41 23.7578 141.586 24.4219C141.762 25.0794 141.85 25.8118 141.85 26.6191ZM139.496 26.8242V26.6191C139.496 26.1309 139.451 25.6784 139.359 25.2617C139.268 24.8385 139.125 24.4674 138.93 24.1484C138.734 23.8294 138.484 23.582 138.178 23.4062C137.878 23.224 137.517 23.1328 137.094 23.1328C136.677 23.1328 136.319 23.2044 136.02 23.3477C135.72 23.4844 135.469 23.6764 135.268 23.9238C135.066 24.1712 134.91 24.4609 134.799 24.793C134.688 25.1185 134.61 25.4733 134.564 25.8574V27.752C134.643 28.2207 134.776 28.6504 134.965 29.041C135.154 29.4316 135.421 29.7441 135.766 29.9785C136.117 30.2064 136.566 30.3203 137.113 30.3203C137.536 30.3203 137.898 30.2292 138.197 30.0469C138.497 29.8646 138.741 29.6139 138.93 29.2949C139.125 28.9694 139.268 28.5951 139.359 28.1719C139.451 27.7487 139.496 27.2995 139.496 26.8242Z" fill="white"/>
<path d="M12.75 7.25V30H7.26562V7.25H12.75ZM19.5938 7.25V11.4844H0.578125V7.25H19.5938Z" fill="white"/>
<path d="M22.75 17.25V40H17.2656V17.25H22.75ZM29.5938 17.25V21.4844H10.5781V17.25H29.5938Z" fill="#8DC73F"/>
</svg>
