<svg width="105" height="20" viewBox="0 0 105 20" fill="none" xmlns="http://www.w3.org/2000/svg">
<path d="M7.29492 0.78125V15H4.86328V0.78125H7.29492ZM11.7578 0.78125V2.73438H0.439453V0.78125H11.7578ZM16.7656 6.46484V19.0625H14.4121V4.43359H16.5801L16.7656 6.46484ZM23.6504 9.61914V9.82422C23.6504 10.5924 23.5592 11.3053 23.377 11.9629C23.2012 12.6139 22.9375 13.1836 22.5859 13.6719C22.2409 14.1536 21.8145 14.528 21.3066 14.7949C20.7988 15.0618 20.2129 15.1953 19.5488 15.1953C18.8913 15.1953 18.3151 15.0749 17.8203 14.834C17.332 14.5866 16.9186 14.2383 16.5801 13.7891C16.2415 13.3398 15.9681 12.8125 15.7598 12.207C15.5579 11.5951 15.4147 10.9245 15.3301 10.1953V9.4043C15.4147 8.62956 15.5579 7.92643 15.7598 7.29492C15.9681 6.66341 16.2415 6.11979 16.5801 5.66406C16.9186 5.20833 17.332 4.85677 17.8203 4.60938C18.3086 4.36198 18.8783 4.23828 19.5293 4.23828C20.1934 4.23828 20.7826 4.36849 21.2969 4.62891C21.8112 4.88281 22.2441 5.2474 22.5957 5.72266C22.9473 6.19141 23.2109 6.75781 23.3867 7.42188C23.5625 8.07943 23.6504 8.81185 23.6504 9.61914ZM21.2969 9.82422V9.61914C21.2969 9.13086 21.2513 8.67839 21.1602 8.26172C21.069 7.83854 20.9258 7.46745 20.7305 7.14844C20.5352 6.82943 20.2845 6.58203 19.9785 6.40625C19.679 6.22396 19.3177 6.13281 18.8945 6.13281C18.4779 6.13281 18.1198 6.20443 17.8203 6.34766C17.5208 6.48438 17.2702 6.67643 17.0684 6.92383C16.8665 7.17122 16.7103 7.46094 16.5996 7.79297C16.4889 8.11849 16.4108 8.47331 16.3652 8.85742V10.752C16.4434 11.2207 16.5768 11.6504 16.7656 12.041C16.9544 12.4316 17.2214 12.7441 17.5664 12.9785C17.918 13.2064 18.3672 13.3203 18.9141 13.3203C19.3372 13.3203 19.6986 13.2292 19.998 13.0469C20.2975 12.8646 20.5417 12.6139 20.7305 12.2949C20.9258 11.9694 21.069 11.5951 21.1602 11.1719C21.2513 10.7487 21.2969 10.2995 21.2969 9.82422ZM33.6094 12.8809V7.8418C33.6094 7.46419 33.541 7.13867 33.4043 6.86523C33.2676 6.5918 33.0592 6.38021 32.7793 6.23047C32.5059 6.08073 32.1608 6.00586 31.7441 6.00586C31.36 6.00586 31.028 6.07096 30.748 6.20117C30.4681 6.33138 30.25 6.50716 30.0938 6.72852C29.9375 6.94987 29.8594 7.20052 29.8594 7.48047H27.5156C27.5156 7.0638 27.6165 6.66016 27.8184 6.26953C28.0202 5.87891 28.3132 5.5306 28.6973 5.22461C29.0814 4.91862 29.5404 4.67773 30.0742 4.50195C30.6081 4.32617 31.207 4.23828 31.8711 4.23828C32.6654 4.23828 33.3685 4.37174 33.9805 4.63867C34.599 4.9056 35.084 5.30924 35.4355 5.84961C35.7936 6.38346 35.9727 7.05404 35.9727 7.86133V12.5586C35.9727 13.0404 36.0052 13.4733 36.0703 13.8574C36.1419 14.235 36.2428 14.5638 36.373 14.8438V15H33.9609C33.8503 14.7461 33.7624 14.4238 33.6973 14.0332C33.6387 13.6361 33.6094 13.252 33.6094 12.8809ZM33.9512 8.57422L33.9707 10.0293H32.2812C31.8451 10.0293 31.4609 10.0716 31.1289 10.1562C30.7969 10.2344 30.5202 10.3516 30.2988 10.5078C30.0775 10.6641 29.9115 10.8529 29.8008 11.0742C29.6901 11.2956 29.6348 11.5462 29.6348 11.8262C29.6348 12.1061 29.6999 12.3633 29.8301 12.5977C29.9603 12.8255 30.1491 13.0046 30.3965 13.1348C30.6504 13.265 30.9564 13.3301 31.3145 13.3301C31.7962 13.3301 32.2161 13.2324 32.5742 13.0371C32.9388 12.8353 33.2253 12.5911 33.4336 12.3047C33.6419 12.0117 33.7526 11.735 33.7656 11.4746L34.5273 12.5195C34.4492 12.7865 34.3158 13.0729 34.127 13.3789C33.9382 13.6849 33.6908 13.9779 33.3848 14.2578C33.0853 14.5312 32.724 14.7559 32.3008 14.9316C31.8841 15.1074 31.4023 15.1953 30.8555 15.1953C30.1654 15.1953 29.5501 15.0586 29.0098 14.7852C28.4694 14.5052 28.0462 14.1309 27.7402 13.6621C27.4342 13.1868 27.2812 12.6497 27.2812 12.0508C27.2812 11.4909 27.3854 10.9961 27.5938 10.5664C27.8086 10.1302 28.1211 9.76562 28.5312 9.47266C28.9479 9.17969 29.4557 8.95833 30.0547 8.80859C30.6536 8.65234 31.3372 8.57422 32.1055 8.57422H33.9512ZM47.6504 8.84766V10.7031H42.1816V8.84766H47.6504ZM42.8652 4.43359V15H40.5117V4.43359H42.8652ZM49.3496 4.43359V15H46.9961V4.43359H49.3496ZM58.1758 13.3203C58.5599 13.3203 58.9049 13.2454 59.2109 13.0957C59.5234 12.9395 59.7741 12.7246 59.9629 12.4512C60.1582 12.1777 60.2656 11.862 60.2852 11.5039H62.502C62.4889 12.1875 62.2871 12.8092 61.8965 13.3691C61.5059 13.929 60.9883 14.375 60.3438 14.707C59.6992 15.0326 58.9863 15.1953 58.2051 15.1953C57.3978 15.1953 56.6947 15.0586 56.0957 14.7852C55.4967 14.5052 54.9987 14.1211 54.6016 13.6328C54.2044 13.1445 53.9049 12.5814 53.7031 11.9434C53.5078 11.3053 53.4102 10.6217 53.4102 9.89258V9.55078C53.4102 8.82161 53.5078 8.13802 53.7031 7.5C53.9049 6.85547 54.2044 6.28906 54.6016 5.80078C54.9987 5.3125 55.4967 4.93164 56.0957 4.6582C56.6947 4.37826 57.3945 4.23828 58.1953 4.23828C59.0417 4.23828 59.7839 4.40755 60.4219 4.74609C61.0599 5.07812 61.5612 5.54362 61.9258 6.14258C62.2969 6.73503 62.4889 7.42513 62.502 8.21289H60.2852C60.2656 7.82227 60.168 7.4707 59.9922 7.1582C59.8229 6.83919 59.582 6.58529 59.2695 6.39648C58.9635 6.20768 58.5957 6.11328 58.166 6.11328C57.6908 6.11328 57.2969 6.21094 56.9844 6.40625C56.6719 6.59505 56.4277 6.85547 56.252 7.1875C56.0762 7.51302 55.9492 7.88086 55.8711 8.29102C55.7995 8.69466 55.7637 9.11458 55.7637 9.55078V9.89258C55.7637 10.3288 55.7995 10.752 55.8711 11.1621C55.9427 11.5723 56.0664 11.9401 56.2422 12.2656C56.4245 12.5846 56.6719 12.8418 56.9844 13.0371C57.2969 13.2259 57.694 13.3203 58.1758 13.3203ZM78.8574 9.84375V10.0488C78.8574 10.7975 78.7728 11.4876 78.6035 12.1191C78.4408 12.7441 78.1966 13.2878 77.8711 13.75C77.5456 14.2122 77.1419 14.5703 76.6602 14.8242C76.1849 15.0781 75.6315 15.2051 75 15.2051C74.4466 15.2051 73.9648 15.1107 73.5547 14.9219C73.1445 14.7331 72.7995 14.4694 72.5195 14.1309C72.2396 13.7858 72.015 13.3822 71.8457 12.9199C71.6764 12.4512 71.5527 11.9368 71.4746 11.377V8.32031C71.5527 7.72135 71.6732 7.17448 71.8359 6.67969C72.0052 6.17839 72.2298 5.74544 72.5098 5.38086C72.7962 5.01628 73.1413 4.73633 73.5449 4.54102C73.9486 4.33919 74.4271 4.23828 74.9805 4.23828C75.4883 4.23828 75.9473 4.32943 76.3574 4.51172C76.7676 4.6875 77.1289 4.94141 77.4414 5.27344C77.7539 5.59896 78.0143 5.99284 78.2227 6.45508C78.431 6.91081 78.5872 7.42513 78.6914 7.99805C78.8021 8.57096 78.8574 9.1862 78.8574 9.84375ZM76.5039 10.0488V9.84375C76.5039 9.43359 76.4779 9.04297 76.4258 8.67188C76.3737 8.30078 76.2923 7.96224 76.1816 7.65625C76.0775 7.34375 75.9408 7.07357 75.7715 6.8457C75.6022 6.61133 75.3971 6.43229 75.1562 6.30859C74.9219 6.17839 74.6484 6.11328 74.3359 6.11328C73.9128 6.11328 73.5612 6.1849 73.2812 6.32812C73.0078 6.46484 72.7995 6.66016 72.6562 6.91406C72.5195 7.16146 72.4316 7.44792 72.3926 7.77344V11.9336C72.4382 12.207 72.5326 12.4479 72.6758 12.6562C72.8255 12.8646 73.0371 13.0306 73.3105 13.1543C73.584 13.2715 73.9323 13.3301 74.3555 13.3301C74.7461 13.3301 75.0749 13.2487 75.3418 13.0859C75.6152 12.9167 75.8366 12.6823 76.0059 12.3828C76.1816 12.0833 76.3086 11.735 76.3867 11.3379C76.4648 10.9408 76.5039 10.5111 76.5039 10.0488ZM65.9082 10.0488V9.84375C65.9082 9.1862 65.9603 8.57096 66.0645 7.99805C66.1686 7.42513 66.3249 6.91081 66.5332 6.45508C66.748 5.99284 67.0117 5.59896 67.3242 5.27344C67.6367 4.94141 67.998 4.6875 68.4082 4.51172C68.8184 4.32943 69.2773 4.23828 69.7852 4.23828C70.332 4.23828 70.804 4.33919 71.2012 4.54102C71.5983 4.73633 71.9336 5.01628 72.207 5.38086C72.487 5.74544 72.7083 6.17839 72.8711 6.67969C73.0404 7.17448 73.1641 7.72135 73.2422 8.32031V11.2598C73.1706 11.8327 73.0501 12.36 72.8809 12.8418C72.7116 13.3236 72.4902 13.7402 72.2168 14.0918C71.9434 14.4434 71.6048 14.7168 71.2012 14.9121C70.7975 15.1074 70.319 15.2051 69.7656 15.2051C69.1406 15.2051 68.5872 15.0781 68.1055 14.8242C67.6237 14.5703 67.2201 14.2122 66.8945 13.75C66.569 13.2878 66.3216 12.7441 66.1523 12.1191C65.9896 11.4876 65.9082 10.7975 65.9082 10.0488ZM68.2617 9.84375V10.0488C68.2617 10.5111 68.2975 10.9408 68.3691 11.3379C68.4473 11.735 68.5677 12.0833 68.7305 12.3828C68.8932 12.6758 69.1081 12.9069 69.375 13.0762C69.6419 13.2454 69.9707 13.3301 70.3613 13.3301C70.791 13.3301 71.1426 13.265 71.416 13.1348C71.6895 13.0046 71.8978 12.8255 72.041 12.5977C72.1908 12.3698 72.2884 12.1094 72.334 11.8164V7.77344C72.2949 7.44792 72.2038 7.16146 72.0605 6.91406C71.9173 6.66016 71.709 6.46484 71.4355 6.32812C71.1621 6.1849 70.8105 6.11328 70.3809 6.11328C69.9902 6.11328 69.6582 6.21094 69.3848 6.40625C69.1178 6.60156 68.8997 6.87174 68.7305 7.2168C68.5677 7.55534 68.4473 7.95247 68.3691 8.4082C68.2975 8.85742 68.2617 9.33594 68.2617 9.84375ZM71.1523 19.0625V0H73.5156V19.0625H71.1523ZM87.5371 15.1953C86.7559 15.1953 86.0495 15.0684 85.418 14.8145C84.793 14.554 84.2591 14.1927 83.8164 13.7305C83.3802 13.2682 83.0449 12.7246 82.8105 12.0996C82.5762 11.4746 82.459 10.8008 82.459 10.0781V9.6875C82.459 8.86068 82.5794 8.11198 82.8203 7.44141C83.0612 6.77083 83.3965 6.19792 83.8262 5.72266C84.2559 5.24089 84.7637 4.87305 85.3496 4.61914C85.9355 4.36523 86.5703 4.23828 87.2539 4.23828C88.0091 4.23828 88.6699 4.36523 89.2363 4.61914C89.8027 4.87305 90.2715 5.23112 90.6426 5.69336C91.0202 6.14909 91.3001 6.69271 91.4824 7.32422C91.6712 7.95573 91.7656 8.65234 91.7656 9.41406V10.4199H83.6016V8.73047H89.4414V8.54492C89.4284 8.12174 89.3438 7.72461 89.1875 7.35352C89.0378 6.98242 88.8066 6.68294 88.4941 6.45508C88.1816 6.22721 87.765 6.11328 87.2441 6.11328C86.8535 6.11328 86.5052 6.19792 86.1992 6.36719C85.8997 6.52995 85.6491 6.76758 85.4473 7.08008C85.2454 7.39258 85.0892 7.77018 84.9785 8.21289C84.8743 8.64909 84.8223 9.14062 84.8223 9.6875V10.0781C84.8223 10.5404 84.8841 10.9701 85.0078 11.3672C85.138 11.7578 85.3268 12.0996 85.5742 12.3926C85.8216 12.6855 86.1211 12.9167 86.4727 13.0859C86.8242 13.2487 87.2246 13.3301 87.6738 13.3301C88.2402 13.3301 88.7448 13.2161 89.1875 12.9883C89.6302 12.7604 90.0143 12.4382 90.3398 12.0215L91.5801 13.2227C91.3522 13.5547 91.056 13.8737 90.6914 14.1797C90.3268 14.4792 89.8809 14.7233 89.3535 14.9121C88.8327 15.1009 88.2272 15.1953 87.5371 15.1953ZM97.9648 6.46484V19.0625H95.6113V4.43359H97.7793L97.9648 6.46484ZM104.85 9.61914V9.82422C104.85 10.5924 104.758 11.3053 104.576 11.9629C104.4 12.6139 104.137 13.1836 103.785 13.6719C103.44 14.1536 103.014 14.528 102.506 14.7949C101.998 15.0618 101.412 15.1953 100.748 15.1953C100.09 15.1953 99.5143 15.0749 99.0195 14.834C98.5312 14.5866 98.1178 14.2383 97.7793 13.7891C97.4408 13.3398 97.1673 12.8125 96.959 12.207C96.7572 11.5951 96.6139 10.9245 96.5293 10.1953V9.4043C96.6139 8.62956 96.7572 7.92643 96.959 7.29492C97.1673 6.66341 97.4408 6.11979 97.7793 5.66406C98.1178 5.20833 98.5312 4.85677 99.0195 4.60938C99.5078 4.36198 100.077 4.23828 100.729 4.23828C101.393 4.23828 101.982 4.36849 102.496 4.62891C103.01 4.88281 103.443 5.2474 103.795 5.72266C104.146 6.19141 104.41 6.75781 104.586 7.42188C104.762 8.07943 104.85 8.81185 104.85 9.61914ZM102.496 9.82422V9.61914C102.496 9.13086 102.451 8.67839 102.359 8.26172C102.268 7.83854 102.125 7.46745 101.93 7.14844C101.734 6.82943 101.484 6.58203 101.178 6.40625C100.878 6.22396 100.517 6.13281 100.094 6.13281C99.6771 6.13281 99.319 6.20443 99.0195 6.34766C98.7201 6.48438 98.4694 6.67643 98.2676 6.92383C98.0658 7.17122 97.9095 7.46094 97.7988 7.79297C97.6882 8.11849 97.61 8.47331 97.5645 8.85742V10.752C97.6426 11.2207 97.776 11.6504 97.9648 12.041C98.1536 12.4316 98.4206 12.7441 98.7656 12.9785C99.1172 13.2064 99.5664 13.3203 100.113 13.3203C100.536 13.3203 100.898 13.2292 101.197 13.0469C101.497 12.8646 101.741 12.6139 101.93 12.2949C102.125 11.9694 102.268 11.5951 102.359 11.1719C102.451 10.7487 102.496 10.2995 102.496 9.82422Z" fill="white"/>
</svg>
